<?xml version="1.0" encoding="utf-8"?>
<!-- Generator: Adobe Illustrator 19.0.0, SVG Export Plug-In . SVG Version: 6.00 Build 0)  -->
<svg version="1.1" id="Layer_1" xmlns="http://www.w3.org/2000/svg" xmlns:xlink="http://www.w3.org/1999/xlink" x="0px" y="0px"
	 viewBox="127.4 -109.2 255.1 289.3" style="enable-background:new 127.4 -109.2 255.1 289.3;" xml:space="preserve">
<style type="text/css">
	.st0{fill:#264DE4;}
	.st1{fill:#2965F1;}
	.st2{fill:#EBEBEB;}
	.st3{fill:#FFFFFF;}
</style>
<g>
	<path class="st0" d="M254.8,180.1l-104.2-28.9l-23.2-260.4h255.1l-23.2,260.4L254.8,180.1L254.8,180.1z"/>
	<path class="st1" d="M339.4,134.5l19.9-222.5H255V158L339.4,134.5L339.4,134.5z"/>
	<path class="st2" d="M180.7,8.6l2.9,31.9H255V8.6H180.7L180.7,8.6z"/>
	<path class="st2" d="M174.9-56l2.9,31.9H255V-56H174.9L174.9-56z"/>
	<path class="st2" d="M255,91.6l-0.1,0L219.3,82L217,56.5H185l4.5,50.1l65.4,18.2l0.1,0V91.6L255,91.6z"/>
	<path class="st3" d="M329.1,8.6l5.8-64.6h-80v31.9h45L297,8.6h-42.1v31.9h39.3L290.5,82l-35.6,9.6v33.2l65.5-18.1l0.5-5.4l7.5-84.1
		L329.1,8.6L329.1,8.6z"/>
</g>
</svg>
