<?xml version="1.0" encoding="utf-8"?>
<!-- Generator: Adobe Illustrator 19.0.0, SVG Export Plug-In . SVG Version: 6.00 Build 0)  -->
<svg version="1.1" id="Layer_1" xmlns="http://www.w3.org/2000/svg" xmlns:xlink="http://www.w3.org/1999/xlink" x="0px" y="0px"
	 viewBox="127.4 -109.2 255.1 289.3" style="enable-background:new 127.4 -109.2 255.1 289.3;" xml:space="preserve">
<style type="text/css">
	.st0{fill:#E44D26;}
	.st1{fill:#F16529;}
	.st2{fill:#EBEBEB;}
	.st3{fill:#FFFFFF;}
</style>
<g>
	<path class="st0" d="M382.6-109.2l-23.2,260.4l-104.5,29l-104.2-28.9l-23.2-260.4H382.6L382.6-109.2z"/>
	<path class="st1" d="M255,158l84.4-23.4l19.9-222.5H255V158L255,158z"/>
	<path class="st2" d="M209.8-24.1H255V-56h-80.1l0.8,8.6l7.8,88H255V8.6h-42.3L209.8-24.1L209.8-24.1z"/>
	<path class="st2" d="M217,56.5H185l4.5,50.1l65.4,18.2l0.1,0V91.6l-0.1,0L219.3,82L217,56.5L217,56.5z"/>
	<path class="st3" d="M254.9,40.6h39.3L290.5,82l-35.6,9.6v33.2l65.5-18.1l0.5-5.4l7.5-84.1l0.8-8.6h-74.2V40.6L254.9,40.6z"/>
	<path class="st3" d="M254.9-24.1L254.9-24.1l77.1,0.1l0.6-7.2l1.5-16.2l0.8-8.6h-80V-24.1L254.9-24.1z"/>
</g>
</svg>
