<?xml version="1.0" encoding="utf-8"?>
<!-- Generator: Adobe Illustrator 19.0.0, SVG Export Plug-In . SVG Version: 6.00 Build 0)  -->
<svg version="1.1" id="Layer_1" xmlns="http://www.w3.org/2000/svg" xmlns:xlink="http://www.w3.org/1999/xlink" x="0px" y="0px"
	 viewBox="119 -120 240 234" style="enable-background:new 119 -120 240 234;" xml:space="preserve">
<style type="text/css">
	.st0{fill:url(#SVGID_1_);}
	.st1{fill:#F37021;}
	.st2{fill:#FF7F18;}
</style>
<radialGradient id="SVGID_1_" cx="216.71" cy="37.714" r="143.432" gradientTransform="matrix(1 0 0 -1 0 -1)" gradientUnits="userSpaceOnUse">
	<stop  offset="0" style="stop-color:#1C0A00;stop-opacity:0.85"/>
	<stop  offset="0.767" style="stop-color:#1C0A00"/>
</radialGradient>
<path class="st0" d="M129-110h220v214H129V-110z"/>
<path class="st1" d="M119-120v234h240v-234H119z M129-110h220v214H129V-110z"/>
<path class="st2" d="M202.3,12.5l-7.9,30c-0.2,0.8-0.5,1-1.5,1h-14.7c-1,0-1.2-0.3-1-1.5l28.4-99.4c0.5-1.8,0.8-3.4,1-8.3
	c0-0.7,0.3-1,0.8-1h21c0.7,0,1,0.2,1.2,1l31.8,107.9c0.2,0.8,0,1.3-0.8,1.3H244c-0.8,0-1.3-0.2-1.5-0.9l-8.3-30.1L202.3,12.5
	L202.3,12.5z M230.1-3.8c-2.8-11.1-9.4-35.3-11.9-47h-0.2c-2.1,11.7-7.4,31.5-11.6,47H230.1z M275.1-59.3c0-6.4,4.5-10.2,10.2-10.2
	c6.1,0,10.2,4.1,10.2,10.2c0,6.6-4.3,10.2-10.4,10.2C279.3-49.1,275.1-52.7,275.1-59.3L275.1-59.3z M276.3-36.6
	c0-0.8,0.3-1.2,1.2-1.2h15.7c0.8,0,1.2,0.3,1.2,1.2v78.9c0,0.8-0.2,1.2-1.2,1.2h-15.5c-1,0-1.3-0.5-1.3-1.3V-36.6z"/>
</svg>
