<?xml version="1.0" encoding="utf-8"?>
<!-- Generator: Adobe Illustrator 19.0.0, SVG Export Plug-In . SVG Version: 6.00 Build 0)  -->
<svg version="1.1" id="Layer_1" xmlns="http://www.w3.org/2000/svg" xmlns:xlink="http://www.w3.org/1999/xlink" x="0px" y="0px"
	 viewBox="255 -52.4 111.9 114.1" style="enable-background:new 255 -52.4 111.9 114.1;" xml:space="preserve">
<style type="text/css">
	.st0{fill:#E42E16;}
</style>
<path class="st0" d="M281.7-50.9c5.1-1.7,10.5-1.6,15.8-1.4c0.9,0.2,1.7,0.4,2.6,0.5c2.9,0.9,5.8,2,8.4,3.6c3.3,2.4,6.3,5.4,8.3,9
	c0.5,1.3,1,2.6,1.5,3.9c0.7,3,0.6,6.1,0.5,9.2c-0.3,3.4-1.3,6.7-2.3,10c-0.5,1.1-1,2.3-1.3,3.5c-0.7,1.4-1.2,2.9-1.9,4.2
	c1.4-1.8,3.1-3.3,4.6-4.9c2.5-3,5.3-5.5,7.9-8.4c3.1-3.7,6.7-6.8,9.8-10.5c5.5-5.4,10.4-11.3,16.1-16.5c0.9-0.6,1.8-1.2,2.7-1.8
	c2.3-1.3,4.9-1.2,7.4-1c2,1,3.9,2.4,4.7,4.5c0.7,1.7,0.4,3.5,0.4,5.3c-0.7,1.2-1.2,2.4-1.9,3.6c-0.3,0.4-0.6,0.9-0.9,1.4
	c-1.8,1.8-3.4,4-5.3,5.7c-2.2,2.2-4.5,4.4-6.4,6.8c-3,3.2-6.2,6.1-9,9.5c-2.2,2.3-4.5,4.6-6.7,6.9c-2.4,2.9-5.1,5.4-7.7,8.1
	c0.3,0.6,0.5,1.2,0.8,1.8c0.5,1.6,1,3.3,1.7,4.9c0.6,1.6,1.1,3.3,1.8,4.8c0.6,1.6,1.1,3.3,1.8,4.8c0.6,1.6,1.1,3.3,1.8,4.8
	c0.6,1.6,1.1,3.3,1.8,4.8c0.5,1.6,1.1,3.3,1.8,4.8c0.4,1.2,0.8,2.4,1.4,3.6c0,0.2,0.1,0.6,0.2,0.8c0.5,1.3,0.9,2.7,1.5,4
	c0.2,0.6,0.5,1.2,0.8,1.8c1.4,2.2,4.1,3.2,6.6,3.3c3.2,0-122.4,0,7.8,0c1.2,0,2.3,0.4,3.5,0.5c0.9,0.5,1.8,0.9,2.8,1.4
	c0.7,0.8,1.3,1.8,1.9,2.8c0.1,1.7,0.1,3.4,0,5.1c-0.2,0.5-0.4,0.9-0.5,1.4c-1.1,1.9-2.7,3.4-4.5,4.5c-1.9,0.6-3.7,1.4-5.7,1.4
	c-131.5,0,3.3,0-11.8,0c-1.6,0-3.1-0.6-4.7-0.5c-1.6-0.6-3.4-1-4.8-2c-1.9-1.1-2.9-3.1-4.2-4.8c-0.5-1.1-1.1-2.1-1.6-3.2
	c-0.3-0.9-0.7-1.8-1.1-2.6c0-0.2-0.1-0.6-0.2-0.8c-1-2.5-1.8-5.1-2.8-7.6c-0.6-1.6-1-3.3-1.8-4.9c0-0.2-0.1-0.6-0.2-0.8
	c-0.5-1.3-0.9-2.7-1.5-4c-0.4-1.2-0.8-2.4-1.3-3.5c-0.6-1.6-1.1-3.3-1.8-4.8c-0.6-1.6-1.1-3.3-1.8-4.8c-0.4-1.2-0.8-2.4-1.4-3.6
	c0-0.2-0.1-0.6-0.2-0.8c-0.5-1.3-0.9-2.7-1.5-4c-0.4-1.2-0.8-2.4-1.3-3.5c-0.6-1.9-1.3-3.8-2.1-5.7c-0.1,0.6-0.2,1.1-0.3,1.7
	c-0.4,0.7-0.7,1.5-1,2.2c-0.3,0.7-0.6,1.5-0.9,2.2c-0.3,0.7-0.6,1.5-0.9,2.2c-0.3,0.7-0.6,1.5-0.9,2.2c-0.3,0.7-0.6,1.5-0.9,2.2
	c-0.3,0.7-0.6,1.5-0.9,2.2c-0.8,1.7-1.5,3.5-2.2,5.3c-0.3,0.7-0.6,1.5-0.9,2.2c-0.3,0.7-0.6,1.5-0.9,2.2c-0.3,0.7-0.6,1.5-0.9,2.2
	c-0.3,0.7-0.6,1.5-0.9,2.2c-0.3,0.7-0.6,1.5-0.9,2.2c-0.3,0.7-0.6,1.5-0.9,2.2c-0.4,0.9-0.7,1.7-1.1,2.6c-0.3,0.6-0.6,1.2-0.9,1.8
	c-1.4,2.3-3,4.5-5.2,5.9c-0.2,0.1-0.7,0.4-0.9,0.5c-1.7,0.5-3.4,1.2-5.2,0.9c-0.7-0.2-1.5-0.4-2.2-0.5c-1.3-0.7-2.6-1.6-3.6-2.7
	c-0.3-0.6-0.7-1.3-1-1.9c-0.4-3,0.2-6,1.4-8.7c0.3-0.7,0.6-1.5,0.9-2.2c0.3-0.7,0.6-1.5,0.9-2.2c0.3-0.7,0.6-1.5,0.9-2.2
	c0.3-0.7,0.6-1.5,0.9-2.2c0.3-0.7,0.6-1.5,0.9-2.2c0.3-0.7,0.6-1.5,0.9-2.2c0.3-0.7,0.6-1.5,0.9-2.2c0.3-0.7,0.6-1.5,0.9-2.2
	c0.3-0.7,0.6-1.5,0.9-2.2c1.1-2.4,2.1-5,3.1-7.5c0.3-0.7,0.6-1.5,0.9-2.2c0.3-0.7,0.6-1.5,0.9-2.2c0.3-0.7,0.6-1.5,0.9-2.2
	c0.3-0.7,0.6-1.5,0.9-2.2c0.3-0.7,0.6-1.5,0.9-2.2c0.3-0.7,0.6-1.5,0.9-2.2c0.3-0.7,0.6-1.5,0.9-2.2c0.3-0.7,0.6-1.5,0.9-2.2
	c1.3-3,2.4-6.1,3.2-9.3c0.6-2.3,1-4.9,0.1-7.2c-1.4-2.4-3.7-4.2-6.4-4.8c-2.8-0.4-5.8-0.2-8.4,1c-0.6,0.3-1.2,0.6-1.8,0.9
	c-4.5,2.9-8.4,7.3-9.6,12.7c-0.4,1.3-0.2,2.6-0.4,3.9c0.1,1.8,0.2,3.5,1.1,5.1c1.2,2.1,3.1,3.8,5.3,4.8c0.9,0.4,1.8,0.8,2.8,1.1
	c1.3,0.7,2.6,1.6,3.6,2.7c0.1,0.2,0.3,0.7,0.4,1c0.2,0.5,0.4,0.9,0.6,1.4c0.6,4.2-2.2,8.1-5.9,9.7c-3.4,1-7.1,0.8-10.5,0
	c-0.7-0.3-1.5-0.6-2.2-0.9c-0.7-0.5-1.5-0.9-2.3-1.3c-3.5-2.3-6-5.8-8.1-9.3c-0.4-1.1-0.8-2.1-1.3-3.1c-1.2-4.1-1.7-8.3-1.4-12.5
	c0.6-3.3,1-6.7,2.3-9.8c0.5-1,0.9-2.1,1.3-3.1c0.6-1,1.2-2,1.8-3.1c0.6-0.9,1.2-1.8,1.8-2.6c2.9-3.7,6.3-7.1,10.2-9.7
	c0.4-0.3,0.9-0.6,1.3-0.9c1.7-0.9,3.5-1.8,5.3-2.7C280-50.3,280.8-50.6,281.7-50.9z"/>
</svg>
