<?xml version="1.0" encoding="utf-8"?>
<!-- Generator: Adobe Illustrator 19.0.0, SVG Export Plug-In . SVG Version: 6.00 Build 0)  -->
<svg version="1.1" id="Layer_1" xmlns="http://www.w3.org/2000/svg" xmlns:xlink="http://www.w3.org/1999/xlink" x="0px" y="0px"
	 viewBox="119 -120 240 234" style="enable-background:new 119 -120 240 234;" xml:space="preserve">
<style type="text/css">
	.st0{fill:url(#SVGID_1_);}
	.st1{fill:#31C5F0;}
</style>
<radialGradient id="SVGID_1_" cx="216.71" cy="37.714" r="143.432" gradientTransform="matrix(1 0 0 -1 0 -1)" gradientUnits="userSpaceOnUse">
	<stop  offset="0" style="stop-color:#0E0E17;stop-opacity:0.85"/>
	<stop  offset="0.767" style="stop-color:#0E0E17"/>
</radialGradient>
<path class="st0" d="M129-110h220v214H129V-110z"/>
<path class="st1" d="M119-120v234h240v-234H119z M129-110h220v214H129V-110z M177-65.2c0-0.7,1.4-1.2,2.2-1.2
	c6.4-0.3,15.9-0.5,25.8-0.5c27.7,0,38.5,15.2,38.5,34.7c0,25.4-18.4,36.3-41,36.3c-3.8,0-5.1-0.2-7.8-0.2v38.4
	c0,0.8-0.3,1.2-1.2,1.2h-15.4c-0.8,0-1.2-0.3-1.2-1.2L177-65.2L177-65.2z M194.8-12.1c2.3,0.2,4.1,0.2,8.1,0.2
	c11.7,0,22.7-4.1,22.7-20c0-12.7-7.9-19.1-21.2-19.1c-4,0-7.8,0.2-9.6,0.3V-12.1L194.8-12.1z M280.8-24c-7.9,0-10.6,4-10.6,7.3
	c0,3.6,1.8,6.1,12.4,11.6c15.7,7.6,20.6,14.9,20.6,25.6c0,16-12.2,24.6-28.7,24.6c-8.7,0-16.2-1.8-20.5-4.3
	c-0.7-0.3-0.8-0.8-0.8-1.6V24.4c0-1,0.5-1.3,1.2-0.8c6.3,4.1,13.5,5.9,20.1,5.9c7.9,0,11.2-3.3,11.2-7.8c0-3.6-2.3-6.8-12.4-12
	C259.2,2.9,253.3-4,253.3-15.5c0-12.9,10.1-23.6,27.6-23.6c8.6,0,14.6,1.3,17.9,2.8c0.8,0.5,1,1.3,1,2v13.7c0,0.8-0.5,1.3-1.5,1
	C293.8-22.3,287.3-24,280.8-24L280.8-24z"/>
</svg>
